<svg width="34" height="34" viewBox="0 0 34 34" fill="none" xmlns="http://www.w3.org/2000/svg">
<path d="M18.4567 2.83398C20.051 2.83662 20.859 2.84506 21.5571 2.86585L21.8321 2.87483C22.1497 2.88612 22.463 2.90028 22.8409 2.91799C24.3483 2.98765 25.3767 3.22612 26.2798 3.57674C27.2136 3.93682 28.0022 4.4232 28.7896 5.21064C29.5758 5.99807 30.0623 6.78903 30.4236 7.72049C30.7729 8.62244 31.0115 9.65189 31.0823 11.1595C31.0992 11.5372 31.1128 11.8506 31.124 12.1683L31.1329 12.4432C31.1536 13.1413 31.1631 13.9493 31.1661 15.5437L31.1672 16.6C31.1673 16.729 31.1673 16.8622 31.1673 16.9996L31.1672 17.3993L31.1663 18.4557C31.1636 20.05 31.1553 20.858 31.1345 21.556L31.1254 21.831C31.1142 22.1488 31.1 22.4621 31.0823 22.8398C31.0126 24.3474 30.7729 25.3757 30.4236 26.2788C30.0635 27.2126 29.5758 28.0013 28.7896 28.7887C28.0022 29.5749 27.21 30.0613 26.2798 30.4225C25.3767 30.772 24.3483 31.0105 22.8409 31.0813C22.463 31.0981 22.1497 31.1119 21.8321 31.1229L21.5571 31.1319C20.859 31.1527 20.051 31.162 18.4567 31.1651L17.4003 31.1663C17.2712 31.1663 17.1381 31.1663 17.0007 31.1663H16.601L15.5446 31.1653C13.9503 31.1627 13.1423 31.1542 12.4442 31.1334L12.1692 31.1245C11.8516 31.1132 11.5382 31.099 11.1604 31.0813C9.65285 31.0117 8.62577 30.772 7.72147 30.4225C6.78882 30.0626 5.99903 29.5749 5.2116 28.7887C4.42418 28.0013 3.93897 27.2091 3.57772 26.2788C3.22709 25.3757 2.9898 24.3474 2.91897 22.8398C2.90214 22.4621 2.88841 22.1488 2.87729 21.831L2.86838 21.556C2.84765 20.858 2.83821 20.05 2.83515 18.4557L2.83496 15.5437C2.8376 13.9493 2.84603 13.1413 2.86681 12.4432L2.8758 12.1683C2.88709 11.8506 2.90126 11.5372 2.91897 11.1595C2.98861 9.6507 3.22709 8.62362 3.57772 7.72049C3.93778 6.78786 4.42418 5.99807 5.2116 5.21064C5.99903 4.4232 6.79001 3.93799 7.72147 3.57674C8.62459 3.22612 9.65168 2.98883 11.1604 2.91799C11.5382 2.90118 11.8516 2.88745 12.1692 2.87633L12.4442 2.86742C13.1423 2.84668 13.9503 2.83723 15.5446 2.83417L18.4567 2.83398ZM17.0007 9.91633C13.0865 9.91633 9.9173 13.089 9.9173 16.9996C9.9173 20.9137 13.09 24.0829 17.0007 24.0829C20.9148 24.0829 24.084 20.9103 24.084 16.9996C24.084 13.0856 20.9112 9.91633 17.0007 9.91633ZM17.0007 12.7497C19.3479 12.7497 21.2507 14.6518 21.2507 16.9996C21.2507 19.3469 19.3485 21.2496 17.0007 21.2496C14.6534 21.2496 12.7506 19.3476 12.7506 16.9996C12.7506 14.6523 14.6527 12.7497 17.0007 12.7497ZM24.4382 7.79133C23.4617 7.79133 22.6673 8.58453 22.6673 9.56095C22.6673 10.5374 23.4605 11.3318 24.4382 11.3318C25.4145 11.3318 26.209 10.5386 26.209 9.56095C26.209 8.58453 25.4133 7.79011 24.4382 7.79133Z" fill="white"/>
</svg>
