<svg width="24" height="44" viewBox="0 0 24 44" fill="none" xmlns="http://www.w3.org/2000/svg">
<path d="M12.001 12C17.5238 12 22.001 16.4771 22.001 22C22.001 27.5228 17.5238 32 12.001 32C10.1671 32 8.44851 31.5064 6.97086 30.6447L2.00516 32L3.35712 27.0315C2.49494 25.5536 2.00098 23.8345 2.00098 22C2.00098 16.4771 6.47813 12 12.001 12ZM8.39232 17.3083C8.26293 17.3174 8.13607 17.349 8.02057 17.4081C7.93392 17.4524 7.85348 17.5165 7.72709 17.6359C7.60774 17.7485 7.53857 17.847 7.46569 17.9419C7.09599 18.4232 6.89729 19.0141 6.90098 19.621C6.90299 20.1116 7.03043 20.5884 7.23169 21.0336C7.63982 21.9364 8.31288 22.8908 9.20194 23.7759C9.4155 23.9885 9.62473 24.2034 9.85034 24.402C10.9538 25.3736 12.2688 26.0742 13.6907 26.4482C13.6907 26.4482 14.2507 26.5342 14.2589 26.5347C14.4444 26.5447 14.6296 26.5313 14.8153 26.5218C15.1066 26.5068 15.391 26.428 15.6484 26.2909C15.8139 26.2028 15.8922 26.159 16.0311 26.0714C16.0311 26.0714 16.0737 26.0426 16.1559 25.9814C16.2909 25.8808 16.3743 25.81 16.4866 25.6934C16.5694 25.6074 16.6406 25.5058 16.6956 25.3913C16.7738 25.2281 16.8525 24.9166 16.8838 24.6579C16.9077 24.4603 16.9005 24.3523 16.8979 24.2854C16.8936 24.1778 16.8047 24.0671 16.7073 24.0201L16.1258 23.7587C16.1258 23.7587 15.2563 23.3803 14.7245 23.1377C14.6691 23.1124 14.6085 23.1007 14.5476 23.097C14.4142 23.0888 14.2647 23.1236 14.1696 23.2238C14.1646 23.2218 14.0984 23.279 13.3749 24.1555C13.335 24.2032 13.2415 24.3069 13.0798 24.2972C13.0554 24.2955 13.0311 24.292 13.0074 24.2858C12.9419 24.2685 12.8781 24.2457 12.8157 24.2193C12.692 24.1668 12.6486 24.1469 12.5641 24.1105C11.9868 23.8583 11.457 23.5209 10.9887 23.108C10.8631 22.9974 10.7463 22.8783 10.6259 22.7616C10.2057 22.3543 9.86169 21.9211 9.60577 21.4938C9.5918 21.4705 9.57027 21.4368 9.54708 21.3991C9.50521 21.331 9.45903 21.25 9.44455 21.1944C9.40738 21.0473 9.50599 20.9291 9.50599 20.9291C9.50599 20.9291 9.74939 20.663 9.86248 20.5183C9.97128 20.379 10.0652 20.2428 10.125 20.1457C10.2428 19.9563 10.2801 19.7606 10.2182 19.6096C9.93764 18.9256 9.64818 18.2454 9.34986 17.5689C9.29098 17.4355 9.11585 17.3385 8.95659 17.3201C8.90265 17.3138 8.84875 17.3076 8.79459 17.304C8.66053 17.2975 8.5262 17.2989 8.39232 17.3083Z" fill="#1CA444"/>
</svg>
