<svg width="172" height="54" viewBox="0 0 172 54" fill="none" xmlns="http://www.w3.org/2000/svg">
<path d="M74.3418 10.9122V0.691208L68.7498 0.691208V10.9122H74.3418Z" fill="#1F1F1F"/>
<path d="M31.9251 0.566383V28.8463H25.0591V11.8866L18.7539 28.8463H13.212L6.86603 11.8456V28.8463H0V0.566383H8.1122L16.0238 20.1457L23.8537 0.566383H31.9251Z" fill="#1F1F1F"/>
<path d="M57.6457 28.8463L55.0363 26.3088C52.4399 28.2967 49.3347 29.2897 45.7206 29.2897C43.5514 29.2897 41.6645 28.9339 40.0581 28.2222C38.4516 27.5105 37.2129 26.5044 36.3437 25.2002C35.4727 23.8979 35.0381 22.3739 35.0381 20.6282C35.0381 18.8825 35.5135 17.2504 36.4644 15.814C37.4153 14.3775 38.8398 13.2019 40.7415 12.289C40.0451 11.4301 39.5492 10.6047 39.2558 9.81107C38.9605 9.01925 38.8138 8.15291 38.8138 7.21205C38.8138 5.86876 39.161 4.64843 39.8575 3.54547C40.5539 2.44438 41.5642 1.57804 42.8903 0.946453C44.2163 0.314863 45.7875 0 47.6094 0C49.4313 0 51.0229 0.335358 52.3081 1.00794C53.5933 1.67865 54.5571 2.57853 55.1997 3.70756C55.8423 4.8366 56.1358 6.07183 56.0838 7.41326H49.6189C49.6449 6.68852 49.4647 6.13145 49.0766 5.74206C48.6884 5.35268 48.1721 5.15705 47.5314 5.15705C46.8907 5.15705 46.3539 5.34523 45.9249 5.72157C45.4959 6.09792 45.2823 6.58046 45.2823 7.17106C45.2823 7.76166 45.4625 8.32618 45.8246 8.94287C46.1868 9.56141 46.7551 10.2731 47.5314 11.078L54.3974 17.8056C54.4513 17.6715 54.5237 17.5112 54.6184 17.3231C54.7113 17.1349 54.8116 16.9206 54.9193 16.6784L57.8221 11.8996V17.5094H61.6646C60.9422 19.0949 59.7926 20.7344 58.8565 22.1578L65.6427 28.8445H57.6512L57.6457 28.8463ZM50.8186 22.1988L44.5543 16.1158C42.6266 17.1088 41.6627 18.4521 41.6627 20.1438C41.6627 21.1648 42.0583 22.0162 42.8476 22.7018C43.6369 23.3875 44.701 23.7284 46.0401 23.7284C47.8341 23.7284 49.4257 23.2179 50.8186 22.1969V22.1988Z" fill="#FFDF20"/>
<path d="M86.0494 0.566383H68.7812V6.17617H86.0494V0.566383Z" fill="#1F1F1F"/>
<path d="M86.0494 11.9015H57.8164V17.5112H86.0494V11.9015Z" fill="#FFDF20"/>
<path d="M86.0494 23.2365H68.7812V28.8463H86.0494V23.2365Z" fill="#1F1F1F"/>
<path d="M74.3398 28.8445V18.4987H68.7478V28.8445H74.3398Z" fill="#1F1F1F"/>
<path d="M11.2604 53.741L6.25524 45.2658H2.52229V53.741H0.496094V33.4519H6.57282C8.8293 33.4519 10.5416 33.9941 11.7079 35.0765C12.8743 36.1608 13.4593 37.5824 13.4593 39.343C13.4593 40.813 13.0396 42.0669 12.2001 43.1027C11.3607 44.1386 10.1219 44.8112 8.48201 45.1205L13.6896 53.741H11.2585H11.2604ZM2.52229 43.6095H6.60253C8.18486 43.6095 9.37532 43.222 10.1758 42.4488C10.9762 41.6756 11.3774 40.6397 11.3774 39.343C11.3774 38.0463 10.9911 36.9769 10.2203 36.2521C9.44775 35.5255 8.23314 35.1641 6.57467 35.1641H2.52229V43.6114V43.6095Z" fill="#1F1F1F"/>
<path d="M31.7157 46.5998H18.6077C18.6652 47.7996 18.955 48.8243 19.475 49.6757C19.995 50.5272 20.6803 51.17 21.529 51.6059C22.3778 52.0419 23.3026 52.2599 24.3074 52.2599C25.6186 52.2599 26.7236 51.9413 27.6206 51.3022C28.5176 50.6632 29.1101 49.8024 29.3998 48.7181H31.5411C31.1548 50.2664 30.3302 51.5295 29.0674 52.5058C27.8045 53.4839 26.2166 53.972 24.3074 53.972C22.8216 53.972 21.49 53.6386 20.3144 52.9697C19.137 52.3027 18.2177 51.3544 17.5509 50.1248C16.8861 48.897 16.5518 47.4587 16.5518 45.8135C16.5518 44.1684 16.8805 42.7264 17.5361 41.4893C18.1917 40.2503 19.1072 39.302 20.2847 38.6444C21.4603 37.9867 22.8012 37.6569 24.3074 37.6569C25.8136 37.6569 27.1284 37.9867 28.2576 38.6444C29.3868 39.302 30.2541 40.187 30.8614 41.3011C31.4687 42.4134 31.7733 43.6468 31.7733 45.0012C31.7733 45.698 31.7547 46.2309 31.7157 46.5979V46.5998ZM29.0116 41.9271C28.5195 41.0962 27.849 40.4665 27.0003 40.0398C26.1516 39.615 25.2248 39.4008 24.2219 39.4008C22.7176 39.4008 21.4343 39.8852 20.3739 40.8521C19.3134 41.8191 18.7247 43.1847 18.6095 44.9453H29.7211C29.7397 43.766 29.5038 42.7581 29.0116 41.9271Z" fill="#1F1F1F"/>
<path d="M35.5361 41.5061C36.1917 40.2783 37.098 39.33 38.255 38.6611C39.412 37.9923 40.7325 37.6588 42.2182 37.6588C44.1664 37.6588 45.7729 38.1432 47.0358 39.1101C48.2987 40.0771 49.114 41.3943 49.4798 43.058H47.3106C47.0395 41.9159 46.4563 41.0217 45.5593 40.3733C44.6623 39.7249 43.548 39.4008 42.2182 39.4008C41.1578 39.4008 40.2032 39.643 39.3544 40.1274C38.5057 40.6118 37.8353 41.3309 37.3431 42.2904C36.851 43.2499 36.6058 44.4237 36.6058 45.8173C36.6058 47.2109 36.851 48.3902 37.3431 49.359C37.8353 50.3278 38.5057 51.0526 39.3544 51.5351C40.2032 52.0195 41.1578 52.2617 42.2182 52.2617C43.5498 52.2617 44.6623 51.9375 45.5593 51.2892C46.4563 50.6408 47.0395 49.7372 47.3106 48.5747H49.4798C49.114 50.1993 48.2931 51.5072 47.0209 52.4927C45.7488 53.4783 44.146 53.9739 42.2182 53.9739C40.7325 53.9739 39.412 53.6404 38.255 52.9716C37.098 52.3046 36.1898 51.3563 35.5361 50.1266C34.8805 48.8988 34.5518 47.4605 34.5518 45.8154C34.5518 44.1703 34.8805 42.7338 35.5361 41.5042V41.5061Z" fill="#1F1F1F"/>
<path d="M57.2801 38.4152C58.1957 37.873 59.3193 37.6029 60.6509 37.6029V39.7212H60.1012C58.6359 39.7212 57.4584 40.1181 56.5707 40.9117C55.683 41.7054 55.2391 43.0301 55.2391 44.8876V53.741H53.2129V37.8935H55.2391V40.7087C55.683 39.7212 56.3627 38.9573 57.2783 38.4152H57.2801Z" fill="#1F1F1F"/>
<path d="M77.3724 37.8917V53.7392H75.3462V50.952C74.8838 51.9394 74.1687 52.694 73.2049 53.2156C72.241 53.7373 71.1601 54 69.9641 54C68.0734 54 66.5301 53.415 65.3341 52.2431C64.1381 51.0731 63.54 49.3739 63.54 47.1494V37.8898H65.5365V46.9165C65.5365 48.6399 65.9655 49.9552 66.8235 50.8644C67.6816 51.7736 68.8535 52.2282 70.3392 52.2282C71.825 52.2282 73.0786 51.7456 73.9849 50.7768C74.8912 49.8099 75.3443 48.3865 75.3443 46.5103V37.8898H77.3705L77.3724 37.8917Z" fill="#1F1F1F"/>
<path d="M81.9746 34.4673C81.6849 34.1766 81.54 33.8189 81.54 33.3941C81.54 32.9694 81.6849 32.6154 81.9746 32.334C82.2643 32.0546 82.6116 31.913 83.0165 31.913C83.4214 31.913 83.7687 32.0527 84.0584 32.334C84.3481 32.6154 84.493 32.9675 84.493 33.3941C84.493 33.8208 84.3481 34.1785 84.0584 34.4673C83.7687 34.7579 83.4214 34.9032 83.0165 34.9032C82.6116 34.9032 82.2643 34.7579 81.9746 34.4673ZM84.0287 37.8917V53.7392H82.0025V37.8917H84.0287Z" fill="#1F1F1F"/>
<path d="M91.2608 39.6038V49.4429C91.2608 50.4098 91.4446 51.0787 91.8105 51.4457C92.1764 51.8127 92.8227 51.9972 93.7494 51.9972H95.601V53.7392H93.4318C92.0037 53.7392 90.9432 53.4057 90.2486 52.7368C89.554 52.0698 89.2067 50.9706 89.2067 49.4429V39.6038H87.0078V37.8917H89.2067V33.9158H91.2608V37.8917H95.601V39.6038H91.2608Z" fill="#1F1F1F"/>
<path d="M122.264 39.3579C123.431 40.5298 124.016 42.2271 124.016 44.4516V53.7392H122.019V44.6826C122.019 42.9611 121.605 41.6458 120.775 40.7347C119.945 39.8256 118.817 39.371 117.389 39.371C115.961 39.371 114.717 39.8647 113.831 40.8521C112.943 41.8396 112.499 43.2704 112.499 45.1484V53.741H110.503V44.6845C110.503 42.963 110.089 41.6477 109.258 40.7366C108.428 39.8274 107.292 39.3728 105.845 39.3728C104.398 39.3728 103.172 39.8665 102.287 40.854C101.399 41.8414 100.955 43.2723 100.955 45.1503V53.7429H98.9287V37.8954H100.955V40.623C101.456 39.6355 102.17 38.8866 103.096 38.3742C104.023 37.8619 105.054 37.6047 106.192 37.6047C107.561 37.6047 108.763 37.9345 109.795 38.5922C110.828 39.2499 111.574 40.2168 112.037 41.4949C112.46 40.2373 113.19 39.2741 114.221 38.6071C115.252 37.9401 116.423 37.6047 117.736 37.6047C119.588 37.6047 121.098 38.1898 122.264 39.3616V39.3579Z" fill="#1F1F1F"/>
<path d="M142.734 46.5998H129.626C129.684 47.7996 129.974 48.8243 130.494 49.6757C131.014 50.5272 131.699 51.17 132.548 51.6059C133.396 52.0419 134.321 52.2599 135.326 52.2599C136.637 52.2599 137.742 51.9413 138.639 51.3022C139.536 50.6632 140.129 49.8024 140.418 48.7181H142.56C142.173 50.2664 141.349 51.5295 140.086 52.5058C138.823 53.4839 137.235 53.972 135.326 53.972C133.84 53.972 132.509 53.6386 131.333 52.9697C130.156 52.3027 129.236 51.3544 128.569 50.1248C127.905 48.897 127.57 47.4587 127.57 45.8135C127.57 44.1684 127.899 42.7264 128.555 41.4893C129.21 40.2503 130.126 39.302 131.303 38.6444C132.479 37.9867 133.82 37.6569 135.326 37.6569C136.832 37.6569 138.147 37.9867 139.276 38.6444C140.405 39.302 141.273 40.187 141.88 41.3011C142.487 42.4134 142.792 43.6468 142.792 45.0012C142.792 45.698 142.773 46.2309 142.734 46.5979V46.5998ZM140.028 41.9271C139.536 41.0962 138.866 40.4665 138.017 40.0398C137.168 39.615 136.242 39.4008 135.239 39.4008C133.734 39.4008 132.451 39.8852 131.391 40.8521C130.33 41.8191 129.741 43.1847 129.626 44.9453H140.738C140.756 43.766 140.52 42.7581 140.028 41.9271Z" fill="#1F1F1F"/>
<path d="M158.532 39.3579C159.728 40.5298 160.326 42.2271 160.326 44.4516V53.7392H158.329V44.6826C158.329 42.9611 157.9 41.6458 157.042 40.7347C156.184 39.8256 155.012 39.371 153.526 39.371C152.041 39.371 150.787 39.8554 149.881 40.8223C148.974 41.7911 148.521 43.2127 148.521 45.0888V53.7392H146.495V37.8917H148.521V40.5913C149.023 39.6243 149.745 38.8828 150.691 38.3705C151.636 37.8581 152.706 37.601 153.902 37.601C155.792 37.601 157.336 38.186 158.532 39.3579Z" fill="#1F1F1F"/>
<path d="M167.444 39.6038V49.4429C167.444 50.4098 167.628 51.0787 167.994 51.4457C168.36 51.8127 169.006 51.9972 169.933 51.9972H171.785V53.7392H169.615C168.187 53.7392 167.127 53.4057 166.432 52.7368C165.738 52.0698 165.39 50.9706 165.39 49.4429V39.6038H163.191V37.8917H165.39V33.9158H167.444V37.8917H171.785V39.6038H167.444Z" fill="#1F1F1F"/>
</svg>
