<svg width="172" height="54" viewBox="0 0 172 54" fill="none" xmlns="http://www.w3.org/2000/svg">
<path d="M74.3418 10.9124V0.691406L68.7498 0.691406V10.9124H74.3418Z" fill="white"/>
<path d="M31.9251 0.566406V28.8464H25.0591V11.8866L18.7539 28.8464H13.212L6.86603 11.8456V28.8464H0V0.566406H8.1122L16.0238 20.1457L23.8537 0.566406H31.9251Z" fill="white"/>
<path d="M57.6457 28.8463L55.0363 26.3088C52.4399 28.2967 49.3347 29.2897 45.7206 29.2897C43.5514 29.2897 41.6645 28.9339 40.0581 28.2222C38.4516 27.5105 37.2129 26.5044 36.3437 25.2002C35.4727 23.8979 35.0381 22.3739 35.0381 20.6282C35.0381 18.8825 35.5135 17.2504 36.4644 15.814C37.4153 14.3775 38.8398 13.2019 40.7415 12.289C40.0451 11.4301 39.5492 10.6047 39.2558 9.81107C38.9605 9.01925 38.8138 8.15291 38.8138 7.21205C38.8138 5.86876 39.161 4.64843 39.8575 3.54547C40.5539 2.44438 41.5642 1.57804 42.8903 0.946453C44.2163 0.314863 45.7875 0 47.6094 0C49.4313 0 51.0229 0.335358 52.3081 1.00794C53.5933 1.67865 54.5571 2.57853 55.1997 3.70756C55.8423 4.8366 56.1358 6.07183 56.0838 7.41326H49.6189C49.6449 6.68852 49.4647 6.13145 49.0766 5.74206C48.6884 5.35268 48.1721 5.15705 47.5314 5.15705C46.8907 5.15705 46.3539 5.34523 45.9249 5.72157C45.4959 6.09792 45.2823 6.58046 45.2823 7.17106C45.2823 7.76166 45.4625 8.32618 45.8246 8.94287C46.1868 9.56141 46.7551 10.2731 47.5314 11.078L54.3974 17.8056C54.4513 17.6715 54.5237 17.5112 54.6184 17.3231C54.7113 17.1349 54.8116 16.9206 54.9193 16.6784L57.8221 11.8996V17.5094H61.6646C60.9422 19.0949 59.7926 20.7344 58.8565 22.1578L65.6427 28.8445H57.6512L57.6457 28.8463ZM50.8186 22.1988L44.5543 16.1158C42.6266 17.1088 41.6627 18.4521 41.6627 20.1438C41.6627 21.1648 42.0583 22.0162 42.8476 22.7018C43.6369 23.3875 44.701 23.7284 46.0401 23.7284C47.8341 23.7284 49.4257 23.2179 50.8186 22.1969V22.1988Z" fill="#FFDF20"/>
<path d="M86.0494 0.566406H68.7812V6.17619H86.0494V0.566406Z" fill="white"/>
<path d="M86.0494 11.9014H57.8164V17.5112H86.0494V11.9014Z" fill="#FFDF20"/>
<path d="M86.0494 23.2363H68.7812V28.8461H86.0494V23.2363Z" fill="white"/>
<path d="M74.3398 28.8448V18.499H68.7478V28.8448H74.3398Z" fill="white"/>
<path d="M11.2604 53.7413L6.25524 45.266H2.52229V53.7413H0.496094V33.4521H6.57282C8.8293 33.4521 10.5416 33.9943 11.7079 35.0768C12.8743 36.1611 13.4593 37.5826 13.4593 39.3433C13.4593 40.8132 13.0396 42.0671 12.2001 43.103C11.3607 44.1389 10.1219 44.8115 8.48201 45.1207L13.6896 53.7413H11.2585H11.2604ZM2.52229 43.6098H6.60253C8.18486 43.6098 9.37532 43.2222 10.1758 42.449C10.9762 41.6759 11.3774 40.64 11.3774 39.3433C11.3774 38.0465 10.9911 36.9771 10.2203 36.2524C9.44775 35.5258 8.23314 35.1643 6.57467 35.1643H2.52229V43.6116V43.6098Z" fill="white"/>
<path d="M31.7157 46.6001H18.6077C18.6652 47.7999 18.955 48.8246 19.475 49.6761C19.995 50.5275 20.6803 51.1703 21.529 51.6062C22.3778 52.0422 23.3026 52.2602 24.3074 52.2602C25.6186 52.2602 26.7236 51.9416 27.6206 51.3025C28.5176 50.6635 29.1101 49.8028 29.3998 48.7184H31.5411C31.1548 50.2667 30.3302 51.5298 29.0674 52.5061C27.8045 53.4842 26.2166 53.9724 24.3074 53.9724C22.8216 53.9724 21.49 53.6389 20.3144 52.97C19.137 52.303 18.2177 51.3547 17.5509 50.1251C16.8861 48.8973 16.5518 47.459 16.5518 45.8139C16.5518 44.1687 16.8805 42.7267 17.5361 41.4896C18.1917 40.2507 19.1072 39.3023 20.2847 38.6447C21.4603 37.987 22.8012 37.6572 24.3074 37.6572C25.8136 37.6572 27.1284 37.987 28.2576 38.6447C29.3868 39.3023 30.2541 40.1873 30.8614 41.3014C31.4687 42.4137 31.7733 43.6471 31.7733 45.0016C31.7733 45.6984 31.7547 46.2312 31.7157 46.5982V46.6001ZM29.0116 41.9274C28.5195 41.0965 27.849 40.4668 27.0003 40.0401C26.1516 39.6153 25.2248 39.4011 24.2219 39.4011C22.7176 39.4011 21.4343 39.8855 20.3739 40.8524C19.3134 41.8194 18.7247 43.185 18.6095 44.9457H29.7211C29.7397 43.7663 29.5038 42.7584 29.0116 41.9274Z" fill="white"/>
<path d="M35.5361 41.5065C36.1917 40.2787 37.098 39.3304 38.255 38.6615C39.412 37.9927 40.7325 37.6592 42.2182 37.6592C44.1664 37.6592 45.7729 38.1436 47.0358 39.1105C48.2987 40.0775 49.114 41.3947 49.4798 43.0584H47.3106C47.0395 41.9164 46.4563 41.0221 45.5593 40.3737C44.6623 39.7254 43.548 39.4012 42.2182 39.4012C41.1578 39.4012 40.2032 39.6434 39.3544 40.1278C38.5057 40.6122 37.8353 41.3313 37.3431 42.2908C36.851 43.2503 36.6058 44.4241 36.6058 45.8177C36.6058 47.2113 36.851 48.3906 37.3431 49.3594C37.8353 50.3282 38.5057 51.053 39.3544 51.5355C40.2032 52.0199 41.1578 52.2621 42.2182 52.2621C43.5498 52.2621 44.6623 51.938 45.5593 51.2896C46.4563 50.6412 47.0395 49.7376 47.3106 48.5751H49.4798C49.114 50.1997 48.2931 51.5076 47.0209 52.4932C45.7488 53.4787 44.146 53.9743 42.2182 53.9743C40.7325 53.9743 39.412 53.6408 38.255 52.972C37.098 52.305 36.1898 51.3567 35.5361 50.127C34.8805 48.8992 34.5518 47.4609 34.5518 45.8158C34.5518 44.1707 34.8805 42.7343 35.5361 41.5046V41.5065Z" fill="white"/>
<path d="M57.2801 38.4148C58.1957 37.8727 59.3193 37.6025 60.6509 37.6025V39.7209H60.1012C58.6359 39.7209 57.4584 40.1177 56.5707 40.9114C55.683 41.7051 55.2391 43.0297 55.2391 44.8872V53.7407H53.2129V37.8932H55.2391V40.7083C55.683 39.7209 56.3627 38.957 57.2783 38.4148H57.2801Z" fill="white"/>
<path d="M77.3724 37.8915V53.739H75.3462V50.9518C74.8838 51.9393 74.1687 52.6938 73.2049 53.2155C72.241 53.7371 71.1601 53.9998 69.9641 53.9998C68.0734 53.9998 66.5301 53.4148 65.3341 52.2429C64.1381 51.0729 63.54 49.3738 63.54 47.1492V37.8896H65.5365V46.9164C65.5365 48.6397 65.9655 49.9551 66.8235 50.8643C67.6816 51.7734 68.8535 52.228 70.3392 52.228C71.825 52.228 73.0786 51.7455 73.9849 50.7767C74.8912 49.8097 75.3443 48.3863 75.3443 46.5102V37.8896H77.3705L77.3724 37.8915Z" fill="white"/>
<path d="M81.9746 34.4674C81.6849 34.1767 81.54 33.819 81.54 33.3942C81.54 32.9695 81.6849 32.6155 81.9746 32.3341C82.2643 32.0547 82.6116 31.9131 83.0165 31.9131C83.4214 31.9131 83.7687 32.0528 84.0584 32.3341C84.3481 32.6155 84.493 32.9676 84.493 33.3942C84.493 33.8209 84.3481 34.1786 84.0584 34.4674C83.7687 34.758 83.4214 34.9034 83.0165 34.9034C82.6116 34.9034 82.2643 34.758 81.9746 34.4674ZM84.0287 37.8918V53.7393H82.0025V37.8918H84.0287Z" fill="white"/>
<path d="M91.2608 39.6041V49.4431C91.2608 50.41 91.4446 51.0789 91.8105 51.4459C92.1764 51.8129 92.8227 51.9974 93.7494 51.9974H95.601V53.7394H93.4318C92.0037 53.7394 90.9432 53.4059 90.2486 52.737C89.554 52.07 89.2067 50.9708 89.2067 49.4431V39.6041H87.0078V37.8919H89.2067V33.916H91.2608V37.8919H95.601V39.6041H91.2608Z" fill="white"/>
<path d="M122.264 39.3577C123.431 40.5296 124.016 42.2268 124.016 44.4514V53.7389H122.019V44.6824C122.019 42.9609 121.605 41.6455 120.775 40.7345C119.945 39.8253 118.817 39.3707 117.389 39.3707C115.961 39.3707 114.717 39.8644 113.831 40.8519C112.943 41.8393 112.499 43.2702 112.499 45.1482V53.7408H110.503V44.6843C110.503 42.9628 110.089 41.6474 109.258 40.7364C108.428 39.8272 107.292 39.3726 105.845 39.3726C104.398 39.3726 103.172 39.8663 102.287 40.8537C101.399 41.8412 100.955 43.272 100.955 45.15V53.7426H98.9287V37.8951H100.955V40.6227C101.456 39.6353 102.17 38.8863 103.096 38.374C104.023 37.8616 105.054 37.6045 106.192 37.6045C107.561 37.6045 108.763 37.9343 109.795 38.5919C110.828 39.2496 111.574 40.2166 112.037 41.4946C112.46 40.237 113.19 39.2738 114.221 38.6068C115.252 37.9399 116.423 37.6045 117.736 37.6045C119.588 37.6045 121.098 38.1895 122.264 39.3614V39.3577Z" fill="white"/>
<path d="M142.734 46.6001H129.626C129.684 47.7999 129.974 48.8246 130.494 49.6761C131.014 50.5275 131.699 51.1703 132.548 51.6062C133.396 52.0422 134.321 52.2602 135.326 52.2602C136.637 52.2602 137.742 51.9416 138.639 51.3025C139.536 50.6635 140.129 49.8028 140.418 48.7184H142.56C142.173 50.2667 141.349 51.5298 140.086 52.5061C138.823 53.4842 137.235 53.9724 135.326 53.9724C133.84 53.9724 132.509 53.6389 131.333 52.97C130.156 52.303 129.236 51.3547 128.569 50.1251C127.905 48.8973 127.57 47.459 127.57 45.8139C127.57 44.1687 127.899 42.7267 128.555 41.4896C129.21 40.2507 130.126 39.3023 131.303 38.6447C132.479 37.987 133.82 37.6572 135.326 37.6572C136.832 37.6572 138.147 37.987 139.276 38.6447C140.405 39.3023 141.273 40.1873 141.88 41.3014C142.487 42.4137 142.792 43.6471 142.792 45.0016C142.792 45.6984 142.773 46.2312 142.734 46.5982V46.6001ZM140.028 41.9274C139.536 41.0965 138.866 40.4668 138.017 40.0401C137.168 39.6153 136.242 39.4011 135.239 39.4011C133.734 39.4011 132.451 39.8855 131.391 40.8524C130.33 41.8194 129.741 43.185 129.626 44.9457H140.738C140.756 43.7663 140.52 42.7584 140.028 41.9274Z" fill="white"/>
<path d="M158.532 39.3585C159.728 40.5304 160.326 42.2276 160.326 44.4522V53.7397H158.329V44.6832C158.329 42.9617 157.9 41.6463 157.042 40.7353C156.184 39.8261 155.012 39.3715 153.526 39.3715C152.041 39.3715 150.787 39.8559 149.881 40.8229C148.974 41.7917 148.521 43.2132 148.521 45.0893V53.7397H146.495V37.8922H148.521V40.5918C149.023 39.6249 149.745 38.8834 150.691 38.371C151.636 37.8587 152.706 37.6016 153.902 37.6016C155.792 37.6016 157.336 38.1866 158.532 39.3585Z" fill="white"/>
<path d="M167.444 39.6041V49.4431C167.444 50.41 167.628 51.0789 167.994 51.4459C168.36 51.8129 169.006 51.9974 169.933 51.9974H171.785V53.7394H169.615C168.187 53.7394 167.127 53.4059 166.432 52.737C165.738 52.07 165.39 50.9708 165.39 49.4431V39.6041H163.191V37.8919H165.39V33.916H167.444V37.8919H171.785V39.6041H167.444Z" fill="white"/>
</svg>
